<svg fill="#878C96" xmlns="http://www.w3.org/2000/svg" width="81px" height="81px" viewBox="0 0 100 100" enable-background="new 0 0 100 100" xml:space="preserve" stroke="#878C96"><g id="SVGRepo_bgCarrier" stroke-width="0"></g><g id="SVGRepo_tracerCarrier" stroke-linecap="round" stroke-linejoin="round"></g><g id="SVGRepo_iconCarrier"> <path d="M33.5,53.1c-7.4,0-13.4,6-13.4,13.4c0,7.4,6,13.4,13.4,13.4c7.4,0,13.4-6,13.4-13.4 C46.9,59.1,40.9,53.1,33.5,53.1z M33.5,74c-4.1,0-7.5-3.4-7.5-7.5c0-4.1,3.4-7.5,7.5-7.5s7.5,3.4,7.5,7.5C41,70.7,37.6,74,33.5,74z"></path> <path d="M66.5,53.1c-7.4,0-13.4,6-13.4,13.4c0,7.4,6,13.4,13.4,13.4c7.4,0,13.4-6,13.4-13.4 C79.9,59.1,73.9,53.1,66.5,53.1z"></path> <path d="M33.5,20c-7.4,0-13.4,6-13.4,13.4c0,7.4,6,13.4,13.4,13.4c7.4,0,13.4-6,13.4-13.4C46.9,26,40.9,20,33.5,20z M33.5,40.9c-4.1,0-7.5-3.4-7.5-7.5s3.4-7.5,7.5-7.5s7.5,3.4,7.5,7.5S37.6,40.9,33.5,40.9z"></path> <path d="M66.5,20c-7.4,0-13.4,6-13.4,13.4c0,7.4,6,13.4,13.4,13.4c7.4,0,13.4-6,13.4-13.4C79.9,26,73.9,20,66.5,20z"></path> </g></svg>