<svg fill="#000000" version="1.1" xmlns="http://www.w3.org/2000/svg" viewBox="0 0 297 297" xmlns:xlink="http://www.w3.org/1999/xlink" enable-background="new 0 0 297 297"><g id="SVGRepo_bgCarrier" stroke-width="0"></g><g id="SVGRepo_tracerCarrier" stroke-linecap="round" stroke-linejoin="round"></g><g id="SVGRepo_iconCarrier"> <g> <path d="m199.313,190.658c-0.065-0.021-13.019-3.996-13.019-3.996-4.241-1.306-8.765,0.919-10.329,5.074l-15.166,40.311c0,0-4.222-18.75-4.297-18.986l8.178-14.166c1.501-2.6 1.501-5.802 0-8.402-1.501-2.6-4.274-4.201-7.276-4.201h-17.806c-3.002,0-5.775,1.601-7.276,4.201-1.501,2.6-1.501,5.802 0,8.402l8.178,14.166c-0.075,0.236-4.297,18.986-4.297,18.986l-15.166-40.311c-1.564-4.154-6.084-6.378-10.329-5.074 0,0-12.954,3.975-13.019,3.996-18.117,6.039-30.289,22.928-30.289,42.025v55.914c0,4.64 3.762,8.402 8.402,8.402h145.4c4.64,0 8.402-3.762 8.402-8.402v-55.914c-0.002-19.097-12.175-35.986-30.291-42.025zm-115.111,89.538v-47.512c0-11.821 7.515-22.279 18.71-26.054l5.175-1.588 28.276,75.154h-52.161zm128.596,0h-52.16l28.276-75.154 5.175,1.588c11.195,3.774 18.71,14.232 18.71,26.054v47.512z"></path> <path d="m148.5,172.805c24.676,0 44.751-20.075 44.751-44.752 0-24.676-20.075-44.751-44.751-44.751s-44.751,20.075-44.751,44.751c0,24.677 20.075,44.752 44.751,44.752zm0-72.7c15.41,0 27.947,12.537 27.947,27.947 0,15.411-12.537,27.948-27.947,27.948s-27.947-12.537-27.947-27.948c0-15.409 12.537-27.947 27.947-27.947z"></path> <path d="m287.885,122.02l-22.718-22.718c-3.282-3.28-8.601-3.28-11.883,0-3.281,3.281-3.281,8.602 0,11.883l8.467,8.467h-38.674c-3.88-34.68-31.495-62.272-66.174-66.155v-24.81l8.375,8.375c1.641,1.64 3.791,2.461 5.941,2.461s4.3-0.821 5.941-2.461c3.281-3.281 3.281-8.602 0-11.883l-22.719-22.719c-3.282-3.28-8.601-3.28-11.883-8.88178e-16l-22.718,22.718c-3.281,3.281-3.281,8.602 0,11.883 3.282,3.28 8.601,3.28 11.883,0l8.375-8.375v24.81c-34.679,3.883-62.295,31.475-66.174,66.155h-38.675l8.467-8.467c3.281-3.281 3.281-8.602 0-11.883-3.282-3.28-8.601-3.28-11.883,0l-22.718,22.719c-3.281,3.281-3.281,8.602 1.77636e-15,11.883l22.718,22.718c1.641,1.64 3.791,2.461 5.941,2.461 2.151,0 4.3-0.821 5.941-2.461 3.281-3.281 3.281-8.602 0-11.883l-8.284-8.283h46.426c4.64,0 8.402-3.762 8.402-8.402 0-32.114 26.126-58.24 58.24-58.24s58.24,26.126 58.24,58.24c0,4.64 3.762,8.402 8.402,8.402h46.426l-8.284,8.283c-3.281,3.281-3.281,8.602 0,11.883 1.641,1.64 3.791,2.461 5.941,2.461s4.3-0.821 5.941-2.461l22.718-22.718c3.283-3.282 3.283-8.602 0.002-11.883z"></path> </g> </g></svg>