<svg fill="none" viewBox="0 0 20 20" xmlns="http://www.w3.org/2000/svg"><path clip-rule="evenodd" d="m17 6c.5523 0 1-.44772 1-1s-.4477-1-1-1-1 .44772-1 1 .4477 1 1 1zm0 2c-1.2124 0-2.2568-.71915-2.7299-1.75413-.2007.06768-.4077.15399-.6169.26405-.8838.4652-1.9198 1.4179-2.6048 3.49008.685 2.0722 1.721 3.0249 2.6048 3.4901.2092.11.4162.1963.6169.264.4731-1.035 1.5175-1.7541 2.7299-1.7541 1.6569 0 3 1.3431 3 3s-1.3431 3-3 3c-1.3841 0-2.5492-.9373-2.8954-2.2117-.4328-.1096-.9032-.2759-1.3828-.5284-.9833-.5175-1.9476-1.3643-2.7218-2.7049-.77419 1.3406-1.73853 2.1874-2.72175 2.7049-.47964.2525-.95004.4188-1.38289.5284-.34616 1.2744-1.51131 2.2117-2.89536 2.2117-1.65685 0-3-1.3431-3-3s1.34315-3 3-3c1.21236 0 2.25675.7191 2.72987 1.7541.20077-.0677.40777-.154.61688-.264.88388-.4652 1.91987-1.4179 2.6049-3.4901-.68504-2.07218-1.72102-3.02488-2.6049-3.49008-.20911-.11006-.41611-.19637-.61688-.26405-.47311 1.03498-1.51751 1.75413-2.72987 1.75413-1.65685 0-3-1.34315-3-3s1.34315-3 3-3c1.38405 0 2.54919.93726 2.89536 2.2117.43285.1096.90325.27594 1.38289.52838.98322.51749 1.94756 1.36432 2.72175 2.70489.7742-1.34057 1.7385-2.1874 2.7218-2.70489.4796-.25244.95-.41877 1.3828-.52838.3462-1.27444 1.5113-2.2117 2.8954-2.2117 1.6569 0 3 1.34315 3 3s-1.3431 3-3 3zm-13-3c0-.55228-.44772-1-1-1s-1 .44772-1 1 .44772 1 1 1 1-.44772 1-1zm12 10c0 .5523.4477 1 1 1s1-.4477 1-1-.4477-1-1-1-1 .4477-1 1zm-13-1c.55228 0 1 .4477 1 1s-.44772 1-1 1-1-.4477-1-1 .44772-1 1-1z" fill="currentColor" fill-rule="evenodd"/></svg>