<svg fill="none" viewBox="0 0 20 20" xmlns="http://www.w3.org/2000/svg"><path clip-rule="evenodd" d="m3 2c-.55228 0-1 .44772-1 1s.44772 1 1 1 1-.44772 1-1-.44772-1-1-1zm0 4c1.29568 0 2.39952-.8214 2.81919-1.97187.48744.03857 1.08648.12997 1.66768.34647.94684.3527 1.77312 1.0008 2.03188 2.31815.32302 1.64445 1.23445 2.67543 2.26395 3.30725-1.0295.6318-1.94093 1.6628-2.26395 3.3073-.25876 1.3173-1.08504 1.9654-2.03188 2.3181-.5812.2165-1.18024.3079-1.66768.3465-.41967-1.1505-1.52351-1.9719-2.81919-1.9719-1.65685 0-3 1.3431-3 3s1.34315 3 3 3c1.31513 0 2.43261-.8462 2.83762-2.0239.63355-.042 1.49154-.1577 2.34739-.4765 1.40212-.5223 2.86749-1.6242 3.29619-3.8069.2588-1.3173 1.0851-1.9654 2.0319-2.3181.2405-.0896.4841-.1578.7215-.2096.4548 1.0782 1.5217 1.835 2.7654 1.835 1.6569 0 3-1.3431 3-3 0-1.65685-1.3431-3-3-3-1.2437 0-2.3106.75681-2.7654 1.83502-.2374-.05187-.481-.12003-.7215-.20961-.9468-.35271-1.7731-1.0008-2.0319-2.31815-.4287-2.18265-1.89407-3.28456-3.29619-3.80685-.85585-.31881-1.71383-.43453-2.34739-.47652-.40501-1.177654-1.52249-2.02389-2.83762-2.02389-1.65685 0-3 1.34315-3 3s1.34315 3 3 3zm13 4c0 .5523.4477 1 1 1s1-.4477 1-1c0-.55228-.4477-1-1-1s-1 .44772-1 1zm-14 7c0-.5523.44772-1 1-1s1 .4477 1 1-.44772 1-1 1-1-.4477-1-1z" fill="currentColor" fill-rule="evenodd"/></svg>