<svg class="svg-icon" style="width: 1em; height: 1em;vertical-align: middle;fill: currentColor;overflow: hidden;" viewBox="0 0 1024 1024" version="1.1" xmlns="http://www.w3.org/2000/svg"><path d="M383.952006 195.239595l390.543182 49.273841A138.670666 138.670666 0 0 1 895.888014 382.032246a135.215098 135.215098 0 0 1-122.736658 134.63917l-509.824272 47.290089c-39.867017 3.711536-70.391201 37.115361-70.391201 77.238345 0 40.826897 30.460192 75.254593 71.031121 80.245969l386.511686 47.482065A192.039995 192.039995 0 0 1 1023.872016 831.896013a191.976003 191.976003 0 0 1-383.952006 0.255968l-383.76003-47.098113a144.87789 144.87789 0 0 1-127.216098-143.790026c0-73.142857 55.673041-134.255218 128.495938-140.974378l509.824272-47.290089A71.223097 71.223097 0 0 0 831.896013 382.096238c0-37.691289-28.028496-69.431321-65.399825-74.166729l-394.31871-49.657793A192.039995 192.039995 0 1 1 383.952006 195.239595zM191.976003 319.960005a127.984002 127.984002 0 1 0 0-255.968004 127.984002 127.984002 0 0 0 0 255.968004z m639.92001 639.92001a127.984002 127.984002 0 1 0 0-255.968004 127.984002 127.984002 0 0 0 0 255.968004z"  /></svg>